<svg width="400" height="280" viewBox="0 0 400 280" fill="none" xmlns="http://www.w3.org/2000/svg">
<!--Background Card-->
  <!-- <rect width="400" height="280" rx="12" fill="rgba(13, 17, 23, 0.95)" stroke="rgba(48, 54, 61, 0.5)" stroke-width="1"/> -->
<!--Header-->
  <text x="20" y="35" font-family="'Segoe UI', -apple-system, sans-serif" font-size="18" font-weight="600" fill="#f0f6fc">
    📊 Language Statistics
  </text>
<!--Language Items-->
<!--TypeScript-->
  <g transform="translate(20, 60)">
    <circle cx="6" cy="6" r="6" fill="#3178c6"/>
    <text x="20" y="10" font-family="'Segoe UI', -apple-system, sans-serif" font-size="14" font-weight="500" fill="#f0f6fc">TypeScript</text>
    <text x="360" y="10" font-family="'Segoe UI', -apple-system, sans-serif" font-size="14" fill="#8b949e" text-anchor="end">42.3%</text>
    <rect x="0" y="18" width="360" height="4" rx="2" fill="rgba(48, 54, 61, 0.8)"/>
    <rect x="0" y="18" width="152" height="4" rx="2" fill="#3178c6"/>
  </g>
<!--JavaScript-->
  <g transform="translate(20, 100)">
    <circle cx="6" cy="6" r="6" fill="#f1e05a"/>
    <text x="20" y="10" font-family="'Segoe UI', -apple-system, sans-serif" font-size="14" font-weight="500" fill="#f0f6fc">JavaScript</text>
    <text x="360" y="10" font-family="'Segoe UI', -apple-system, sans-serif" font-size="14" fill="#8b949e" text-anchor="end">28.7%</text>
    <rect x="0" y="18" width="360" height="4" rx="2" fill="rgba(48, 54, 61, 0.8)"/>
    <rect x="0" y="18" width="103" height="4" rx="2" fill="#f1e05a"/>
  </g>
<!--Python-->
  <g transform="translate(20, 140)">
    <circle cx="6" cy="6" r="6" fill="#3572A5"/>
    <text x="20" y="10" font-family="'Segoe UI', -apple-system, sans-serif" font-size="14" font-weight="500" fill="#f0f6fc">Python</text>
    <text x="360" y="10" font-family="'Segoe UI', -apple-system, sans-serif" font-size="14" fill="#8b949e" text-anchor="end">15.2%</text>
    <rect x="0" y="18" width="360" height="4" rx="2" fill="rgba(48, 54, 61, 0.8)"/>
    <rect x="0" y="18" width="55" height="4" rx="2" fill="#3572A5"/>
  </g>
<!--CSS-->
  <g transform="translate(20, 180)">
    <circle cx="6" cy="6" r="6" fill="#563d7c"/>
    <text x="20" y="10" font-family="'Segoe UI', -apple-system, sans-serif" font-size="14" font-weight="500" fill="#f0f6fc">CSS</text>
    <text x="360" y="10" font-family="'Segoe UI', -apple-system, sans-serif" font-size="14" fill="#8b949e" text-anchor="end">8.9%</text>
    <rect x="0" y="18" width="360" height="4" rx="2" fill="rgba(48, 54, 61, 0.8)"/>
    <rect x="0" y="18" width="32" height="4" rx="2" fill="#563d7c"/>
  </g>
<!--Go-->
  <g transform="translate(20, 220)">
    <circle cx="6" cy="6" r="6" fill="#00ADD8"/>
    <text x="20" y="10" font-family="'Segoe UI', -apple-system, sans-serif" font-size="14" font-weight="500" fill="#f0f6fc">Go</text>
    <text x="360" y="10" font-family="'Segoe UI', -apple-system, sans-serif" font-size="14" fill="#8b949e" text-anchor="end">4.9%</text>
    <rect x="0" y="18" width="360" height="4" rx="2" fill="rgba(48, 54, 61, 0.8)"/>
    <rect x="0" y="18" width="18" height="4" rx="2" fill="#00ADD8"/>
  </g>
<!--Footer Stats-->
  <text x="20" y="265" font-family="'Segoe UI', -apple-system, sans-serif" font-size="12" fill="#8b949e">
    Based on repository analysis • Updated recently
  </text>
<!--Subtle gradient overlay for depth-->
  <!-- <defs> -->
  <!--   <linearGradient id="cardGradient" x1="0%" y1="0%" x2="100%" y2="100%"> -->
  <!--     <stop offset="0%" style="stop-color:rgba(255,255,255,0.05);stop-opacity:1"/> -->
  <!--     <stop offset="100%" style="stop-color:rgba(255,255,255,0.01);stop-opacity:1"/> -->
  <!--   </linearGradient> -->
  <!-- </defs> -->
  <!-- <rect width="400" height="280" rx="12" fill="url(#cardGradient)"/> -->
</svg>

